<svg xmlns="http://www.w3.org/2000/svg" width="100" height="100" viewBox="0 0 100 100"><path fill="#a976d0" d="M29 8L50 8L50 29ZM71 8L71 29L50 29ZM71 92L50 92L50 71ZM29 92L29 71L50 71ZM8 29L29 29L29 50ZM92 29L92 50L71 50ZM92 71L71 71L71 50ZM8 71L8 50L29 50Z"/><path fill="#7839a7" d="M11.5 18.5a7,7 0 1,1 14,0a7,7 0 1,1 -14,0M74.5 18.5a7,7 0 1,1 14,0a7,7 0 1,1 -14,0M74.5 81.5a7,7 0 1,1 14,0a7,7 0 1,1 -14,0M11.5 81.5a7,7 0 1,1 14,0a7,7 0 1,1 -14,0"/><path fill="#e8e8e8" d="M50 39.5L50 50L39.5 50ZM60.5 50L50 50L50 39.5ZM50 60.5L50 50L60.5 50ZM39.5 50L50 50L50 60.5Z"/></svg>