<svg xmlns="http://www.w3.org/2000/svg" width="100" height="100" viewBox="0 0 100 100"><path fill="#5ac4c6" d="M50 18.5L39.5 29L29 18.5L39.5 8ZM60.5 29L50 18.5L60.5 8L71 18.5ZM50 81.5L60.5 71L71 81.5L60.5 92ZM39.5 71L50 81.5L39.5 92L29 81.5ZM29 39.5L18.5 50L8 39.5L18.5 29ZM81.5 50L71 39.5L81.5 29L92 39.5ZM71 60.5L81.5 50L92 60.5L81.5 71ZM18.5 50L29 60.5L18.5 71L8 60.5Z"/><path fill="#464646" d="M8 8L29 8L29 18.5ZM92 8L92 29L81.5 29ZM92 92L71 92L71 81.5ZM8 92L8 71L18.5 71Z"/><path fill="#e3e3e3" d="M50 39.5L50 50L39.5 50ZM60.5 50L50 50L50 39.5ZM50 60.5L50 50L60.5 50ZM39.5 50L50 50L50 60.5Z"/></svg>