<svg xmlns="http://www.w3.org/2000/svg" width="100" height="100" viewBox="0 0 100 100"><path fill="#e2e4b3" d="M50 29L29 29L29 8ZM50 29L50 8L71 8ZM50 71L71 71L71 92ZM50 71L50 92L29 92ZM29 50L8 50L8 29ZM71 50L71 29L92 29ZM71 50L92 50L92 71ZM29 50L29 71L8 71Z"/><path fill="#c6ca67" d="M29 8L29 29L8 29ZM92 29L71 29L71 8ZM71 92L71 71L92 71ZM8 71L29 71L29 92Z"/><path fill="#4c4c4c" d="M29 29L50 29L50 50L29 50ZM34.3 42.1L42.1 50L50 42.1L42.1 34.3ZM71 29L71 50L50 50L50 29ZM57.9 34.3L50 42.1L57.9 50L65.8 42.1ZM71 71L50 71L50 50L71 50ZM65.8 57.9L57.9 50L50 57.9L57.9 65.8ZM29 71L29 50L50 50L50 71ZM42.1 65.8L50 57.9L42.1 50L34.3 57.9Z"/></svg>