<svg xmlns="http://www.w3.org/2000/svg" width="100" height="100" viewBox="0 0 100 100"><path fill="#349739" d="M39.5 8L50 18.5L39.5 29L29 18.5ZM71 18.5L60.5 29L50 18.5L60.5 8ZM60.5 92L50 81.5L60.5 71L71 81.5ZM29 81.5L39.5 71L50 81.5L39.5 92ZM18.5 29L29 39.5L18.5 50L8 39.5ZM92 39.5L81.5 50L71 39.5L81.5 29ZM81.5 71L71 60.5L81.5 50L92 60.5ZM8 60.5L18.5 50L29 60.5L18.5 71Z"/><path fill="#b3e4b5" d="M29 8L29 29L18.5 29ZM92 29L71 29L71 18.5ZM71 92L71 71L81.5 71ZM8 71L29 71L29 81.5Z"/><path fill="#67ca6c" d="M50 29L50 45L40 29ZM71 50L55 50L71 40ZM50 71L50 55L60 71ZM29 50L45 50L29 60Z"/></svg>