<svg xmlns="http://www.w3.org/2000/svg" width="100" height="100" viewBox="0 0 100 100"><path fill="#2f878b" d="M50 29L29 29L29 18.5ZM50 29L50 8L60.5 8ZM50 71L71 71L71 81.5ZM50 71L50 92L39.5 92ZM29 50L8 50L8 39.5ZM71 50L71 29L81.5 29ZM71 50L92 50L92 60.5ZM29 50L29 71L18.5 71Z"/><path fill="#5ac1c6" d="M29 18.5L18.5 29L8 18.5L18.5 8ZM81.5 29L71 18.5L81.5 8L92 18.5ZM71 81.5L81.5 71L92 81.5L81.5 92ZM18.5 71L29 81.5L18.5 92L8 81.5Z"/><path fill="#e3e3e3" d="M29 29L50 29L50 50L29 50ZM34.3 42.1L42.1 50L50 42.1L42.1 34.3ZM71 29L71 50L50 50L50 29ZM57.9 34.3L50 42.1L57.9 50L65.8 42.1ZM71 71L50 71L50 50L71 50ZM65.8 57.9L57.9 50L50 57.9L57.9 65.8ZM29 71L29 50L50 50L50 71ZM42.1 65.8L50 57.9L42.1 50L34.3 57.9Z"/></svg>