<svg xmlns="http://www.w3.org/2000/svg" width="100" height="100" viewBox="0 0 100 100"><path fill="#eaeaea" d="M29 8L50 8L50 29ZM71 8L71 29L50 29ZM71 92L50 92L50 71ZM29 92L29 71L50 71ZM8 29L29 29L29 50ZM92 29L92 50L71 50ZM92 71L71 71L71 50ZM8 71L8 50L29 50Z"/><path fill="#85a9d5" d="M11.5 18.5a7,7 0 1,1 14,0a7,7 0 1,1 -14,0M74.5 18.5a7,7 0 1,1 14,0a7,7 0 1,1 -14,0M74.5 81.5a7,7 0 1,1 14,0a7,7 0 1,1 -14,0M11.5 81.5a7,7 0 1,1 14,0a7,7 0 1,1 -14,0M29 29L50 29L50 50L29 50ZM42.5 47.9L47.9 37L37 37ZM71 29L71 50L50 50L50 29ZM52.1 42.5L63 47.9L63 37ZM71 71L50 71L50 50L71 50ZM57.6 52.1L52.1 63L63 63ZM29 71L29 50L50 50L50 71ZM47.9 57.6L37 52.1L37 63Z"/></svg>