<svg xmlns="http://www.w3.org/2000/svg" width="100" height="100" viewBox="0 0 100 100"><path fill="#b5ca67" d="M32.5 18.5a7,7 0 1,1 14,0a7,7 0 1,1 -14,0M53.5 18.5a7,7 0 1,1 14,0a7,7 0 1,1 -14,0M53.5 81.5a7,7 0 1,1 14,0a7,7 0 1,1 -14,0M32.5 81.5a7,7 0 1,1 14,0a7,7 0 1,1 -14,0M11.5 39.5a7,7 0 1,1 14,0a7,7 0 1,1 -14,0M74.5 39.5a7,7 0 1,1 14,0a7,7 0 1,1 -14,0M74.5 60.5a7,7 0 1,1 14,0a7,7 0 1,1 -14,0M11.5 60.5a7,7 0 1,1 14,0a7,7 0 1,1 -14,0M37 42a5,5 0 1,1 10,0a5,5 0 1,1 -10,0M53 42a5,5 0 1,1 10,0a5,5 0 1,1 -10,0M53 58a5,5 0 1,1 10,0a5,5 0 1,1 -10,0M37 58a5,5 0 1,1 10,0a5,5 0 1,1 -10,0"/><path fill="#dae4b3" d="M11.5 18.5a7,7 0 1,1 14,0a7,7 0 1,1 -14,0M74.5 18.5a7,7 0 1,1 14,0a7,7 0 1,1 -14,0M74.5 81.5a7,7 0 1,1 14,0a7,7 0 1,1 -14,0M11.5 81.5a7,7 0 1,1 14,0a7,7 0 1,1 -14,0"/></svg>