<svg xmlns="http://www.w3.org/2000/svg" width="100" height="100" viewBox="0 0 100 100"><path fill="#2f858b" d="M50 29L29 29L29 8ZM50 29L50 8L71 8ZM50 71L71 71L71 92ZM50 71L50 92L29 92ZM29 50L8 50L8 29ZM71 50L71 29L92 29ZM71 50L92 50L92 71ZM29 50L29 71L8 71Z"/><path fill="#5abfc6" d="M29 18.5L18.5 29L8 18.5L18.5 8ZM81.5 29L71 18.5L81.5 8L92 18.5ZM71 81.5L81.5 71L92 81.5L81.5 92ZM18.5 71L29 81.5L18.5 92L8 81.5ZM36 36L50 36L50 50L36 50ZM64 36L64 50L50 50L50 36ZM64 64L50 64L50 50L64 50ZM36 64L36 50L50 50L50 64Z"/></svg>