<svg xmlns="http://www.w3.org/2000/svg" width="100" height="100" viewBox="0 0 100 100"><path fill="#4c4c4c" d="M29 18.5L39.5 8L50 18.5L39.5 29ZM60.5 8L71 18.5L60.5 29L50 18.5ZM71 81.5L60.5 92L50 81.5L60.5 71ZM39.5 92L29 81.5L39.5 71L50 81.5ZM8 39.5L18.5 29L29 39.5L18.5 50ZM81.5 29L92 39.5L81.5 50L71 39.5ZM92 60.5L81.5 71L71 60.5L81.5 50ZM18.5 71L8 60.5L18.5 50L29 60.5Z"/><path fill="#e5e5e5" d="M8 29L8 8L18.5 8ZM71 8L92 8L92 18.5ZM92 71L92 92L81.5 92ZM29 92L8 92L8 81.5Z"/><path fill="#67ca8c" d="M29 29L50 29L50 43.7L37.4 37.4L43.7 50L29 50ZM71 29L71 50L56.3 50L62.6 37.4L50 43.7L50 29ZM71 71L50 71L50 56.3L62.6 62.6L56.3 50L71 50ZM29 71L29 50L43.7 50L37.4 62.6L50 56.3L50 71Z"/></svg>