<svg xmlns="http://www.w3.org/2000/svg" width="100" height="100" viewBox="0 0 100 100"><path fill="#c2c2ea" d="M29 8L50 8L50 18.5ZM71 8L71 29L60.5 29ZM71 92L50 92L50 81.5ZM29 92L29 71L39.5 71ZM8 29L29 29L29 39.5ZM92 29L92 50L81.5 50ZM92 71L71 71L71 60.5ZM8 71L8 50L18.5 50Z"/><path fill="#3e3fb6" d="M8 18.5L18.5 8L29 18.5L18.5 29ZM81.5 8L92 18.5L81.5 29L71 18.5ZM92 81.5L81.5 92L71 81.5L81.5 71ZM18.5 92L8 81.5L18.5 71L29 81.5Z"/><path fill="#8585d5" d="M50 29L50 45L40 29ZM71 50L55 50L71 40ZM50 71L50 55L60 71ZM29 50L45 50L29 60Z"/></svg>