<svg xmlns="http://www.w3.org/2000/svg" width="100" height="100" viewBox="0 0 100 100"><path fill="#d09176" d="M50 18.5L39.5 29L29 18.5L39.5 8ZM60.5 29L50 18.5L60.5 8L71 18.5ZM50 81.5L60.5 71L71 81.5L60.5 92ZM39.5 71L50 81.5L39.5 92L29 81.5ZM29 39.5L18.5 50L8 39.5L18.5 29ZM81.5 50L71 39.5L81.5 29L92 39.5ZM71 60.5L81.5 50L92 60.5L81.5 71ZM18.5 50L29 60.5L18.5 71L8 60.5ZM11.5 18.5a7,7 0 1,1 14,0a7,7 0 1,1 -14,0M74.5 18.5a7,7 0 1,1 14,0a7,7 0 1,1 -14,0M74.5 81.5a7,7 0 1,1 14,0a7,7 0 1,1 -14,0M11.5 81.5a7,7 0 1,1 14,0a7,7 0 1,1 -14,0"/><path fill="#e7c8ba" d="M37 42a5,5 0 1,1 10,0a5,5 0 1,1 -10,0M53 42a5,5 0 1,1 10,0a5,5 0 1,1 -10,0M53 58a5,5 0 1,1 10,0a5,5 0 1,1 -10,0M37 58a5,5 0 1,1 10,0a5,5 0 1,1 -10,0"/></svg>