<svg xmlns="http://www.w3.org/2000/svg" width="100" height="100" viewBox="0 0 100 100"><path fill="#e5e5e5" d="M32.5 18.5a7,7 0 1,1 14,0a7,7 0 1,1 -14,0M53.5 18.5a7,7 0 1,1 14,0a7,7 0 1,1 -14,0M53.5 81.5a7,7 0 1,1 14,0a7,7 0 1,1 -14,0M32.5 81.5a7,7 0 1,1 14,0a7,7 0 1,1 -14,0M11.5 39.5a7,7 0 1,1 14,0a7,7 0 1,1 -14,0M74.5 39.5a7,7 0 1,1 14,0a7,7 0 1,1 -14,0M74.5 60.5a7,7 0 1,1 14,0a7,7 0 1,1 -14,0M11.5 60.5a7,7 0 1,1 14,0a7,7 0 1,1 -14,0"/><path fill="#976634" d="M8 8L29 8L29 29ZM92 8L92 29L71 29ZM92 92L71 92L71 71ZM8 92L8 71L29 71Z"/><path fill="#ca9967" d="M34 34L48 34L48 48L34 48ZM66 34L66 48L52 48L52 34ZM66 66L52 66L52 52L66 52ZM34 66L34 52L48 52L48 66Z"/></svg>