<svg xmlns="http://www.w3.org/2000/svg" width="100" height="100" viewBox="0 0 100 100"><path fill="#2f778b" d="M39.5 29L29 18.5L39.5 8L50 18.5ZM50 18.5L60.5 8L71 18.5L60.5 29ZM60.5 71L71 81.5L60.5 92L50 81.5ZM50 81.5L39.5 92L29 81.5L39.5 71ZM18.5 50L8 39.5L18.5 29L29 39.5ZM71 39.5L81.5 29L92 39.5L81.5 50ZM81.5 50L92 60.5L81.5 71L71 60.5ZM29 60.5L18.5 71L8 60.5L18.5 50Z"/><path fill="#5aafc6" d="M29 29L8 29L8 18.5ZM71 29L71 8L81.5 8ZM71 71L92 71L92 81.5ZM29 71L29 92L18.5 92Z"/><path fill="#acd7e2" d="M29 29L50 29L50 50L29 50ZM36.6 42a5.5,5.5 0 1,0 10.9,0a5.5,5.5 0 1,0 -10.9,0M71 29L71 50L50 50L50 29ZM52.5 42a5.5,5.5 0 1,0 10.9,0a5.5,5.5 0 1,0 -10.9,0M71 71L50 71L50 50L71 50ZM52.5 58a5.5,5.5 0 1,0 10.9,0a5.5,5.5 0 1,0 -10.9,0M29 71L29 50L50 50L50 71ZM36.6 58a5.5,5.5 0 1,0 10.9,0a5.5,5.5 0 1,0 -10.9,0"/></svg>