<svg xmlns="http://www.w3.org/2000/svg" width="100" height="100" viewBox="0 0 100 100"><path fill="#d2c2ea" d="M39.5 29L29 18.5L39.5 8L50 18.5ZM50 18.5L60.5 8L71 18.5L60.5 29ZM60.5 71L71 81.5L60.5 92L50 81.5ZM50 81.5L39.5 92L29 81.5L39.5 71ZM18.5 50L8 39.5L18.5 29L29 39.5ZM71 39.5L81.5 29L92 39.5L81.5 50ZM81.5 50L92 60.5L81.5 71L71 60.5ZM29 60.5L18.5 71L8 60.5L18.5 50Z"/><path fill="#703eb6" d="M11.5 18.5a7,7 0 1,1 14,0a7,7 0 1,1 -14,0M74.5 18.5a7,7 0 1,1 14,0a7,7 0 1,1 -14,0M74.5 81.5a7,7 0 1,1 14,0a7,7 0 1,1 -14,0M11.5 81.5a7,7 0 1,1 14,0a7,7 0 1,1 -14,0"/><path fill="#a685d5" d="M50 39.5L50 50L39.5 50ZM60.5 50L50 50L50 39.5ZM50 60.5L50 50L60.5 50ZM39.5 50L50 50L50 60.5Z"/></svg>